<svg width="19" height="17" viewBox="0 0 19 17" fill="none" xmlns="http://www.w3.org/2000/svg">
<path fill-rule="evenodd" clip-rule="evenodd" d="M8.59583 0C10.6208 0 10.9158 0.0108333 11.7692 0.05C12.6558 0.0908333 13.2617 0.231667 13.7917 0.4375C14.3479 0.646561 14.8519 0.974464 15.2683 1.39833C15.6922 1.81481 16.0201 2.31875 16.2292 2.875C16.435 3.405 16.5758 4.01083 16.6167 4.8975C16.6567 5.78667 16.6667 6.07 16.6667 8.33333V8.4C16.6667 10.6025 16.6567 10.8892 16.6167 11.7692C16.5758 12.6558 16.435 13.2617 16.2292 13.7917C16.0201 14.3479 15.6922 14.8519 15.2683 15.2683C14.8519 15.6922 14.3479 16.0201 13.7917 16.2292C13.2617 16.435 12.6558 16.5758 11.7692 16.6167C10.88 16.6567 10.5967 16.6667 8.33333 16.6667H8.26667C6.06417 16.6667 5.7775 16.6567 4.8975 16.6167C4.01083 16.5758 3.405 16.435 2.875 16.2292C2.31875 16.0201 1.81481 15.6922 1.39833 15.2683C0.974464 14.8519 0.646561 14.3479 0.4375 13.7917C0.231667 13.2617 0.0908333 12.6558 0.05 11.7692C0.0108333 10.9158 0 10.62 0 8.59583V8.07083C0 6.04583 0.0108333 5.75083 0.05 4.8975C0.0908333 4.01083 0.231667 3.405 0.4375 2.875C0.646561 2.31875 0.974464 1.81481 1.39833 1.39833C1.81481 0.974464 2.31875 0.646561 2.875 0.4375C3.405 0.231667 4.01083 0.0908333 4.8975 0.05C6.39417 0.0108333 6.69167 0 8.73333 0H8.59583ZM5.45417 1.25C3.1825 1.35333 2.8125 1.79417 2.3525 2.9725C1.90667 4.12 1.8025 5.1825 1.8025 8.33333C1.8025 11.5542 1.8975 12.5775 2.3525 13.6942C2.80417 14.855 3.17917 15.3075 5.45417 15.4167C7.75417 15.5225 12.1592 15.5225 14.4592 15.4167C16.7342 15.3083 17.1092 14.855 17.5608 13.6942C18.0067 12.5467 18.1108 11.4842 18.1108 8.33333C18.1108 5.1125 18.0158 4.08917 17.5608 2.9725C17.1092 1.81167 16.7342 1.35917 14.4592 1.25C12.1592 1.14417 7.75417 1.14417 5.45417 1.25ZM8.59583 4.23333C9.16161 4.23333 9.72185 4.34477 10.2446 4.56129C10.7673 4.7778 11.2422 5.09515 11.6423 5.49521C12.0424 5.89528 12.3597 6.37023 12.5762 6.89294C12.7927 7.41565 12.9042 7.97589 12.9042 8.54167C12.9042 9.10744 12.7927 9.66768 12.5762 10.1904C12.3597 10.7131 12.0424 11.1881 11.6423 11.5881C11.2422 11.9882 10.7673 12.3055 10.2446 12.522C9.72185 12.7386 9.16161 12.85 8.59583 12.85C7.45319 12.85 6.35735 12.3961 5.54938 11.5881C4.74141 10.7801 4.2875 9.68431 4.2875 8.54167C4.2875 7.39903 4.74141 6.30318 5.54938 5.49521C6.35735 4.68725 7.45319 4.23333 8.59583 4.23333ZM8.59583 5.48333C7.78471 5.48333 7.00681 5.80555 6.43327 6.3791C5.85972 6.95265 5.5375 7.73055 5.5375 8.54167C5.5375 9.35279 5.85972 10.1307 6.43327 10.7042C7.00681 11.2778 7.78471 11.6 8.59583 11.6C9.40695 11.6 10.1849 11.2778 10.7584 10.7042C11.332 10.1307 11.6542 9.35279 11.6542 8.54167C11.6542 7.73055 11.332 6.95265 10.7584 6.3791C10.1849 5.80555 9.40695 5.48333 8.59583 5.48333ZM13.4875 2.00833C13.7262 2.00833 13.9551 2.10315 14.1239 2.27194C14.2927 2.44072 14.3875 2.66964 14.3875 2.90833C14.3875 3.14703 14.2927 3.37595 14.1239 3.54473C13.9551 3.71351 13.7262 3.80833 13.4875 3.80833C13.2488 3.80833 13.0199 3.71351 12.8511 3.54473C12.6823 3.37595 12.5875 3.14703 12.5875 2.90833C12.5875 2.66964 12.6823 2.44072 12.8511 2.27194C13.0199 2.10315 13.2488 2.00833 13.4875 2.00833Z" fill="currentColor"/>
</svg>
